<?xml version="1.0" encoding="utf-8"?>
<!-- Generator: Adobe Illustrator 25.0.0, SVG Export Plug-In . SVG Version: 6.00 Build 0)  -->
<svg version="1.1" id="レイヤー_1" xmlns="http://www.w3.org/2000/svg" xmlns:xlink="http://www.w3.org/1999/xlink" x="0px"
	 y="0px" viewBox="0 0 200 74" style="enable-background:new 0 0 200 74;" xml:space="preserve">
<style type="text/css">
	.st0{fill:#040000;}
	.st1{fill:#11A67F;}
	.st2{fill:#EA601B;}
	.st3{fill:#4F5AA6;}
	.st4{fill:#3281C4;}
	.st5{fill:#1298AB;}
	.st6{fill:#546BB1;}
	.st7{fill:#BC173E;}
	.st8{fill:#794798;}
	.st9{fill:#D92F16;}
	.st10{fill:#5C7EBE;}
	.st11{fill:#6D4798;}
	.st12{fill:#A9CC24;}
	.st13{fill:#56B332;}
	.st14{fill:#3DB163;}
	.st15{fill:#87C12E;}
	.st16{fill:#E3D920;}
	.st17{fill:#BAD32D;}
	.st18{fill:#F4B115;}
	.st19{fill:#97C31E;}
	.st20{fill:#66B62E;}
	.st21{fill:#1BB3AB;}
	.st22{fill:#4DB361;}
	.st23{fill:#F39F16;}
	.st24{fill:#C41142;}
</style>
<g>
	<g>
		<path class="st0" d="M36.8,44.7l21.9,0c0.7,0,1.3-0.6,1.3-1.3v-3.5c0-0.7-0.6-1.3-1.3-1.3l-16.3,0c-0.4,0-0.6-0.3-0.6-0.6v-6.8
			c0-0.2,0.1-0.3,0.3-0.3l14.6,0c0.7,0,1.3-0.6,1.3-1.3v-3.6c0-0.7-0.6-1.3-1.3-1.3l-14.6,0c-0.2,0-0.3-0.1-0.3-0.3l0-6.7
			c0-0.4,0.3-0.7,0.7-0.7l16.3,0c0.7,0,1.3-0.6,1.3-1.3v-3.5c0-0.7-0.6-1.3-1.3-1.3l-21.9,0c-0.7,0-1.3,0.6-1.3,1.3l0,31.2
			C35.6,44.2,36.1,44.7,36.8,44.7z"/>
		<path class="st0" d="M103.1,17l16.5,0c0.3,0,0.4,0.3,0.2,0.5l-18,21.7c-0.2,0.2-0.3,0.5-0.3,0.8v3.4c0,0.7,0.6,1.3,1.3,1.3l24.7,0
			c0.7,0,1.3-0.6,1.3-1.3V40c0-0.7-0.6-1.3-1.3-1.3l-16.8,0c-0.3,0-0.4-0.3-0.2-0.5l18-21.7c0.2-0.2,0.3-0.5,0.3-0.8v-3.5
			c0-0.7-0.6-1.3-1.3-1.3l-24.4,0c-0.7,0-1.3,0.6-1.3,1.3v3.4C101.8,16.4,102.4,17,103.1,17z"/>
		<path class="st0" d="M193.8,12.3v21c0,0.3-0.4,0.5-0.6,0.2l-16.2-22c-0.2-0.3-0.6-0.5-1-0.5l-4.2,0c-0.7,0-1.3,0.6-1.3,1.3l0,31.2
			c0,0.7,0.6,1.3,1.3,1.3h3.7c0.7,0,1.3-0.6,1.3-1.3V22.4c0-0.3,0.4-0.5,0.6-0.2l16.1,22.1c0.2,0.3,0.6,0.5,1,0.5h4.2
			c0.7,0,1.3-0.6,1.3-1.3l0-31.2c0-0.7-0.6-1.3-1.3-1.3H195C194.3,11,193.8,11.6,193.8,12.3z"/>
		<path class="st0" d="M22.4,31.7c0.4-0.1,0.7-0.3,1.1-0.4c3.7-1.6,5.6-4.8,5.6-9.1c0-3.4-1.1-6.1-3.3-8.1c-2.2-2-5-3-8.5-3l-16,0
			c-0.7,0-1.3,0.6-1.3,1.3l0,31.2c0,0.7,0.6,1.3,1.3,1.3l3.7,0c0.7,0,1.3-0.6,1.3-1.3l0-10.6l0-6l0-8.5c0-0.7,0.6-1.3,1.3-1.3l9.4,0
			c1.9,0,3.4,0.5,4.5,1.4c1,0.9,1.5,2.1,1.5,3.6c0,1-0.2,1.7-0.5,2.3c-1,1.6-2.9,2.4-5.7,2.4c-0.6,0-1.6,0-2.1,0.7
			c-0.4,0.5-0.4,1.4-0.1,1.9c0.3,0.4,8.6,14.7,8.6,14.7c0.2,0.4,0.6,0.6,1.1,0.6l4.9,0c0.8,0,1.2-0.8,0.8-1.5L22.4,31.7z"/>
		<path class="st0" d="M82.8,7.9l-4,0c-0.6,0-1.2,0.4-1.5,1L63.9,43.4c-0.3,0.6,0.2,1.3,0.9,1.3h4.3c0.7,0,1.2-0.4,1.5-1l9.9-26.6
			c0.1-0.3,0.5-0.3,0.6,0l9.9,26.6c0.3,0.6,0.8,1,1.5,1l4.3,0c0.7,0,1.1-0.7,0.9-1.3L84.3,8.8C84,8.2,83.4,7.9,82.8,7.9z"/>
	</g>
	<g>
		<path class="st1" d="M143.6,43.9c1.6,0.5,3.3,0.8,5.1,0.8c1.8,0,3.5-0.3,5.1-0.8c-1.8-0.5-3.6-1.2-5.1-2.3
			C147.2,42.7,145.5,43.5,143.6,43.9z"/>
		<path class="st2" d="M153.8,11.8c-1.6-0.5-3.3-0.8-5.1-0.8c-1.8,0-3.5,0.3-5.1,0.8c1.8,0.5,3.6,1.2,5.1,2.3
			C150.3,13,152,12.3,153.8,11.8z"/>
		<path class="st3" d="M164.8,22.8c-0.5,1.8-1.2,3.6-2.3,5.1c1,1.5,1.8,3.3,2.3,5.1c0.5-1.6,0.8-3.3,0.8-5.1S165.3,24.4,164.8,22.8z
			"/>
		<path class="st4" d="M156.7,42.7c2.9-1.6,5.3-4,6.9-6.9c-1.5,0.9-3.1,1.6-4.9,2C158.3,39.6,157.6,41.2,156.7,42.7z"/>
		<path class="st5" d="M154.9,38.3c-0.8,0-1.6-0.1-2.3-0.2c-1.1,1.4-2.4,2.6-3.8,3.5c1.5,1,3.3,1.8,5.1,2.3c1-0.3,2-0.7,2.9-1.2
			c0.9-1.5,1.6-3.1,2-4.9C157.5,38.2,156.2,38.3,154.9,38.3z"/>
		<path class="st6" d="M159,31.7c0.1,0.8,0.2,1.5,0.2,2.3c0,1.3-0.2,2.6-0.5,3.9c1.7-0.4,3.4-1.1,4.9-2c0.5-0.9,0.9-1.9,1.2-2.9
			c-0.5-1.8-1.2-3.6-2.3-5.1C161.6,29.3,160.4,30.6,159,31.7z"/>
		<path class="st4" d="M152.6,38c0,0-0.1,0.1-0.1,0.1c0.8,0.1,1.5,0.2,2.3,0.2c1.3,0,2.6-0.2,3.9-0.5c0.3-1.2,0.5-2.5,0.5-3.9
			c0-0.8-0.1-1.6-0.2-2.3c0,0-0.1,0.1-0.1,0.1C157.8,34.7,155.5,36.9,152.6,38z"/>
		<path class="st7" d="M163.6,19.9c-1.6-2.9-4-5.3-6.9-6.9c0.9,1.5,1.6,3.1,2,4.9C160.5,18.3,162.1,19,163.6,19.9z"/>
		<path class="st8" d="M159.2,21.7c0,0.8-0.1,1.6-0.2,2.3c1.4,1.1,2.6,2.4,3.5,3.8c1-1.5,1.8-3.3,2.3-5.1c-0.3-1-0.7-2-1.2-2.9
			c-1.5-0.9-3.1-1.6-4.9-2C159,19.1,159.2,20.4,159.2,21.7z"/>
		<path class="st9" d="M152.6,17.6c0.8-0.1,1.5-0.2,2.3-0.2c1.3,0,2.6,0.2,3.9,0.5c-0.4-1.7-1.1-3.4-2-4.9c-0.9-0.5-1.9-0.9-2.9-1.2
			c-1.8,0.5-3.6,1.2-5.1,2.3C150.2,15,151.5,16.2,152.6,17.6z"/>
		<path class="st7" d="M158.9,24c0,0,0.1,0.1,0.1,0.1c0.1-0.8,0.2-1.5,0.2-2.3c0-1.3-0.2-2.6-0.5-3.9c-1.2-0.3-2.5-0.5-3.9-0.5
			c-0.8,0-1.6,0.1-2.3,0.2c0,0,0.1,0.1,0.1,0.1C155.5,18.8,157.8,21.1,158.9,24z"/>
		<path class="st3" d="M159,24.1c0,0.1,0,0.1,0,0.2c0.4,1.1,0.6,2.4,0.6,3.6s-0.2,2.5-0.6,3.6c0,0.1,0,0.1,0,0.2
			c1.4-1.1,2.6-2.4,3.5-3.8C161.6,26.4,160.4,25.1,159,24.1z"/>
		<path class="st10" d="M158.9,31.8c0,0,0.1-0.1,0.1-0.1c0-0.1,0-0.1,0-0.2C159,31.6,158.9,31.7,158.9,31.8z"/>
		<path class="st11" d="M159,24.2c0-0.1,0-0.1,0-0.2c0,0-0.1-0.1-0.1-0.1C158.9,24.1,159,24.1,159,24.2z"/>
		<path class="st12" d="M132.7,22.8c-0.5,1.6-0.8,3.3-0.8,5.1s0.3,3.5,0.8,5.1c0.5-1.8,1.2-3.6,2.3-5.1
			C133.9,26.3,133.1,24.6,132.7,22.8z"/>
		<path class="st13" d="M133.9,35.8c1.6,2.9,4,5.3,6.9,6.9c-0.9-1.5-1.6-3.1-2-4.9C137,37.5,135.4,36.8,133.9,35.8z"/>
		<path class="st14" d="M144.9,38.2c-0.8,0.1-1.5,0.2-2.3,0.2c-1.3,0-2.6-0.2-3.9-0.5c0.4,1.7,1.1,3.4,2,4.9
			c0.9,0.5,1.9,0.9,2.9,1.2c1.8-0.5,3.6-1.2,5.1-2.3C147.3,40.7,146,39.5,144.9,38.2z"/>
		<path class="st15" d="M138.3,34c0-0.8,0.1-1.6,0.2-2.3c-1.4-1.1-2.6-2.4-3.5-3.8c-1,1.5-1.8,3.3-2.3,5.1c0.3,1,0.7,2,1.2,2.9
			c1.5,0.9,3.1,1.6,4.9,2C138.4,36.6,138.3,35.3,138.3,34z"/>
		<path class="st13" d="M138.6,31.8c0,0-0.1-0.1-0.1-0.1c-0.1,0.8-0.2,1.5-0.2,2.3c0,1.3,0.2,2.6,0.5,3.9c1.2,0.3,2.5,0.5,3.9,0.5
			c0.8,0,1.6-0.1,2.3-0.2c0,0-0.1-0.1-0.1-0.1C142,36.9,139.7,34.7,138.6,31.8z"/>
		<path class="st16" d="M140.8,13c-2.9,1.6-5.3,4-6.9,6.9c1.5-0.9,3.1-1.6,4.9-2C139.2,16.1,139.9,14.5,140.8,13z"/>
		<path class="st17" d="M138.5,24.1c-0.1-0.8-0.2-1.5-0.2-2.3c0-1.3,0.2-2.6,0.5-3.9c-1.7,0.4-3.4,1.1-4.9,2
			c-0.5,0.9-0.9,1.9-1.2,2.9c0.5,1.8,1.2,3.6,2.3,5.1C135.9,26.4,137.1,25.1,138.5,24.1z"/>
		<path class="st18" d="M142.6,17.4c0.8,0,1.6,0.1,2.3,0.2c1.1-1.4,2.4-2.6,3.8-3.5c-1.5-1-3.3-1.8-5.1-2.3c-1,0.3-2,0.7-2.9,1.2
			c-0.9,1.5-1.6,3.1-2,4.9C140,17.6,141.3,17.4,142.6,17.4z"/>
		<path class="st16" d="M144.8,17.7c0,0,0.1-0.1,0.1-0.1c-0.8-0.1-1.5-0.2-2.3-0.2c-1.3,0-2.6,0.2-3.9,0.5c-0.3,1.2-0.5,2.5-0.5,3.9
			c0,0.8,0.1,1.6,0.2,2.3c0,0,0.1-0.1,0.1-0.1C139.7,21.1,142,18.8,144.8,17.7z"/>
		<path class="st12" d="M137.8,27.9c0-1.3,0.2-2.5,0.6-3.6c0-0.1,0-0.1,0-0.2c-1.4,1.1-2.6,2.4-3.5,3.8c1,1.5,2.2,2.7,3.5,3.8
			c0-0.1,0-0.1,0-0.2C138.1,30.4,137.8,29.2,137.8,27.9z"/>
		<path class="st19" d="M138.6,24c0,0-0.1,0.1-0.1,0.1c0,0.1,0,0.1,0,0.2C138.5,24.1,138.5,24.1,138.6,24z"/>
		<path class="st20" d="M138.5,31.5c0,0.1,0,0.1,0,0.2c0,0,0.1,0.1,0.1,0.1C138.5,31.7,138.5,31.6,138.5,31.5z"/>
		<path class="st1" d="M148.7,38.8c-1.3,0-2.5-0.2-3.6-0.6c-0.1,0-0.1,0-0.2,0c1.1,1.4,2.4,2.6,3.8,3.5c1.5-1,2.7-2.2,3.8-3.5
			c-0.1,0-0.1,0-0.2,0C151.2,38.5,150,38.8,148.7,38.8z"/>
		<path class="st21" d="M152.4,38.1c0.1,0,0.1,0,0.2,0c0,0,0.1-0.1,0.1-0.1C152.6,38.1,152.5,38.1,152.4,38.1z"/>
		<path class="st22" d="M144.8,38c0,0,0.1,0.1,0.1,0.1c0.1,0,0.1,0,0.2,0C145,38.1,144.9,38.1,144.8,38z"/>
		<path class="st2" d="M148.7,17c1.3,0,2.5,0.2,3.6,0.6c0.1,0,0.1,0,0.2,0c-1.1-1.4-2.4-2.6-3.8-3.5c-1.5,1-2.7,2.2-3.8,3.5
			c0.1,0,0.1,0,0.2,0C146.2,17.2,147.5,17,148.7,17z"/>
		<path class="st23" d="M145.1,17.6c-0.1,0-0.1,0-0.2,0c0,0-0.1,0.1-0.1,0.1C144.9,17.7,145,17.7,145.1,17.6z"/>
		<path class="st24" d="M152.6,17.7c0,0-0.1-0.1-0.1-0.1c-0.1,0-0.1,0-0.2,0C152.5,17.7,152.6,17.7,152.6,17.7z"/>
	</g>
	<g>
		<polygon class="st0" points="8,59 1.9,59 1.9,53.9 0.1,53.9 0.1,66 1.9,66 1.9,60.9 8,60.9 8,66 9.9,66 9.9,53.9 8,53.9 		"/>
		<path class="st0" d="M21.3,53.8c-1.8,0-3.3,0.6-4.4,1.8c-1.1,1.2-1.7,2.6-1.7,4.4s0.6,3.2,1.7,4.4c1.2,1.2,2.6,1.8,4.4,1.8
			c1.8,0,3.3-0.6,4.4-1.8c1.1-1.2,1.7-2.6,1.7-4.4c0-1.7-0.6-3.2-1.7-4.4C24.6,54.4,23.1,53.8,21.3,53.8z M21.3,64.3
			c-1.3,0-2.3-0.4-3.1-1.2c-0.8-0.8-1.1-1.8-1.1-3.1c0-1.2,0.4-2.3,1.1-3.1c0.8-0.8,1.8-1.2,3.1-1.2c1.3,0,2.3,0.4,3.1,1.2
			c0.8,0.8,1.1,1.8,1.1,3.1c0,1.2-0.4,2.3-1.1,3.1C23.6,63.9,22.6,64.3,21.3,64.3z"/>
		<polygon class="st0" points="34.6,53.9 32.7,53.9 32.7,66 40.9,66 40.9,64.2 34.6,64.2 		"/>
		<path class="st0" d="M53.4,54.3c-0.7-0.3-1.4-0.4-2.1-0.4h-5.1V66h5.1c0.7,0,1.4-0.1,2.1-0.4c0.7-0.3,1.3-0.7,1.8-1.2
			c1.1-1.2,1.7-2.6,1.7-4.4c0-1.8-0.6-3.3-1.7-4.4C54.6,55,54,54.6,53.4,54.3z M48,55.8h3.2c1.1,0,2,0.4,2.7,1.2c0.7,0.8,1,1.8,1,3
			s-0.3,2.2-1,3c-0.7,0.8-1.6,1.2-2.7,1.2H48V55.8z"/>
		<rect x="62.1" y="53.9" class="st0" width="1.9" height="12.1"/>
		<polygon class="st0" points="78.7,63 72,53.9 70.1,53.9 70.1,66 71.9,66 71.9,56.9 78.6,66 80.5,66 80.5,53.9 78.7,53.9 		"/>
		<path class="st0" d="M90.1,56c0.5-0.2,1.2-0.3,1.9-0.3c0.7,0,1.4,0.2,2,0.5c0.6,0.3,1,0.8,1.3,1.4l0.1,0.2h2l-0.2-0.4
			c-0.4-1-1.2-1.9-2.1-2.5c-0.5-0.3-1-0.5-1.5-0.7c-1.1-0.3-2.8-0.4-4.3,0.2c-0.7,0.3-1.4,0.8-1.9,1.3c-1.1,1.2-1.6,2.6-1.6,4.4
			c0,1.8,0.5,3.2,1.6,4.4c0.5,0.6,1.1,1,1.9,1.3c0.7,0.3,1.5,0.5,2.2,0.5c0.7,0,1.3-0.1,1.8-0.2c0.9-0.3,1.7-0.7,2.4-1.4V66h1.8
			v-6.7h-6v1.8h4.2c-0.1,0.9-0.4,1.7-1.1,2.3c-0.7,0.6-1.6,0.9-2.6,0.9c-1.3,0-2.3-0.4-3-1.2c-0.7-0.8-1.1-1.8-1.1-3.1
			c0-1.2,0.4-2.3,1.1-3.1C89.2,56.5,89.6,56.2,90.1,56z"/>
		<path class="st0" d="M111.5,60.2c-0.4-0.3-0.8-0.5-1.3-0.6c-0.5-0.2-1-0.3-1.5-0.4l-1.4-0.4c-0.5-0.1-0.9-0.2-1.2-0.4
			c-0.3-0.1-0.6-0.3-0.8-0.5c-0.2-0.2-0.2-0.3-0.2-0.5c0-0.2,0-0.4,0.1-0.6c0.1-0.2,0.2-0.3,0.4-0.5c0.2-0.2,0.5-0.3,0.8-0.4
			c0.4-0.1,0.8-0.2,1.4-0.2c0.6,0,1,0.1,1.4,0.2c1,0.3,1.5,0.8,1.6,1.6l0,0.3h1.9l0-0.3c-0.1-1-0.5-1.8-1.3-2.5
			c-0.8-0.7-2.1-1.1-3.6-1.1c-1.5,0-2.7,0.3-3.4,1c-0.8,0.6-1.2,1.5-1.2,2.5c0,0.7,0.2,1.3,0.7,1.8c0.4,0.4,0.9,0.7,1.6,1
			c0.6,0.2,1.2,0.4,1.9,0.6c0.7,0.1,1.3,0.3,1.9,0.5c0.6,0.2,1,0.4,1.4,0.6c0.3,0.2,0.5,0.5,0.5,0.8c0,0.4,0,1.7-2.9,1.7
			c-1,0-1.8-0.2-2.3-0.5c-0.6-0.4-1-0.9-1-1.6l0-0.3h-2l0,0.3c0.1,1.2,0.6,2.1,1.4,2.8c0.9,0.7,2.2,1.1,3.9,1.1
			c1.5,0,2.7-0.3,3.5-0.9c0.9-0.6,1.3-1.5,1.3-2.7C112.8,61.5,112.4,60.7,111.5,60.2z"/>
	</g>
</g>
</svg>
